<?xml version="1.0" standalone="no"?>
<!DOCTYPE svg PUBLIC "-//W3C//DTD SVG 20010904//EN"
 "http://www.w3.org/TR/2001/REC-SVG-20010904/DTD/svg10.dtd">
<svg version="1.0" xmlns="http://www.w3.org/2000/svg"
 width="511.000000pt" height="511.000000pt" viewBox="0 0 511.000000 511.000000"
 preserveAspectRatio="xMidYMid meet">
<metadata>
Created by potrace 1.14, written by Peter Selinger 2001-2017
</metadata>
<g transform="translate(0.000000,511.000000) scale(0.100000,-0.100000)"
fill="#000000" stroke="none">
<path d="M50 2555 l0 -2555 340 0 340 0 0 198 c0 271 0 4749 0 4840 l0 72
-340 0 -340 0 0 -2555z"/>
<path d="M1390 5103 c0 -7 0 -4512 0 -4919 l0 -180 323 0 322 1 1 1030 c1 567
2 1036 3 1043 1 9 108 12 500 12 l499 0 30 -48 c27 -44 78 -131 125 -212 10
-19 65 -111 120 -205 55 -93 117 -198 136 -233 20 -34 117 -200 216 -369 99
-169 191 -327 205 -352 14 -25 28 -47 33 -49 4 -2 7 -7 7 -12 0 -4 18 -38 41
-75 22 -37 49 -82 59 -99 9 -17 48 -83 85 -146 38 -63 77 -131 87 -150 11 -19
28 -48 39 -65 10 -16 24 -39 30 -50 10 -20 18 -21 405 -21 217 0 394 4 394 8
0 8 -164 279 -291 481 -15 23 -93 150 -174 282 -81 132 -154 248 -163 258 -8
9 -11 17 -7 17 4 0 1 8 -7 18 -8 9 -28 40 -45 67 -17 28 -76 124 -132 213 -55
90 -101 168 -101 173 0 5 -3 9 -8 9 -4 0 -12 9 -17 19 -32 63 -81 141 -87 141
-5 0 -8 4 -8 9 0 5 -81 140 -180 301 -99 161 -178 295 -175 298 3 3 5 3 5 0 0
-7 187 69 235 95 17 8 45 23 63 31 44 21 206 126 210 137 2 5 8 9 13 9 8 0 67
51 133 116 17 16 49 52 71 80 22 27 42 51 45 54 27 24 113 182 155 285 26 64
73 255 82 336 15 135 7 485 -12 541 -2 7 -6 29 -9 48 -12 79 -60 222 -111 325
-88 182 -214 327 -387 446 -48 33 -88 57 -88 53 0 -4 -8 0 -18 9 -43 39 -355
154 -466 171 -21 4 -41 8 -45 10 -3 3 -27 7 -51 11 -50 7 -83 12 -118 19 -13
3 -51 8 -85 12 -34 3 -82 8 -107 11 -78 9 -1780 15 -1780 6z m1675 -507 c33
-4 74 -9 90 -11 102 -11 296 -56 354 -82 18 -8 39 -16 45 -17 6 -1 40 -17 76
-35 114 -59 223 -159 284 -261 49 -84 92 -199 102 -275 1 -11 3 -20 4 -20 3 0
9 -48 15 -115 15 -183 -2 -352 -50 -508 -3 -7 -5 -16 -6 -20 -1 -4 -12 -31
-25 -60 -59 -134 -180 -271 -305 -348 -35 -21 -66 -39 -69 -39 -3 -1 -23 -9
-45 -19 -55 -24 -172 -62 -220 -72 -22 -4 -42 -8 -45 -9 -129 -31 -259 -38
-760 -40 -250 -1 -460 2 -465 6 -11 8 -14 1907 -3 1925 8 12 920 12 1023 0z"/>
</g>
</svg>
